<svg width="19" height="19" viewBox="0 0 19 19" fill="none" xmlns="http://www.w3.org/2000/svg">
<g clip-path="url(#clip0_197_147)">
<path d="M15.9668 18.0611C15.7881 18.0093 15.6014 17.9744 15.4317 17.9033C14.7307 17.6097 14.2982 17.1064 14.1606 16.3868C14.1427 16.2924 14.1011 16.2437 14.0013 16.2209C13.6643 16.144 13.3273 16.0658 12.9931 15.9778C12.0661 15.7337 11.4412 14.9573 11.4388 14.0477C11.4365 13.0313 11.4379 12.0145 11.4388 10.998C11.4388 10.5613 11.7277 10.2851 12.1852 10.2847C13.0517 10.2838 13.9186 10.2865 14.785 10.2838C15.8325 10.2811 16.6725 9.65711 16.9041 8.69075C17.1324 7.73691 16.6007 6.56405 15.4199 6.31598C15.2658 6.28335 15.106 6.27039 14.9476 6.26189C14.5723 6.24178 14.2821 5.97002 14.2693 5.61646C14.2292 4.52004 13.5026 3.7356 12.3559 3.6015C12.0741 3.56843 11.7678 3.62162 11.4894 3.69403C11.1245 3.78879 10.8461 3.7195 10.6064 3.44998C9.86289 2.61503 8.90664 2.20694 7.76083 2.24494C5.99769 2.30349 4.57346 3.58496 4.38817 5.24726C4.37446 5.36929 4.36642 5.49176 4.36123 5.61468C4.34704 5.96868 4.0587 6.2543 3.68386 6.25877C2.53143 6.27217 1.7288 7.08656 1.67491 8.19104C1.62481 9.21371 2.42791 10.1197 3.50849 10.257C3.64226 10.2739 3.7784 10.2833 3.91311 10.2833C5.71123 10.2851 7.50936 10.2838 9.30748 10.2851C9.65018 10.2851 9.92245 10.4876 10.0056 10.796C10.0841 11.0865 9.93663 11.4115 9.64593 11.5447C9.5391 11.5939 9.41005 11.6198 9.29046 11.6211C8.65989 11.6283 8.02885 11.6247 7.3978 11.6247C7.33446 11.6247 7.27112 11.6247 7.19029 11.6247C7.19029 11.7002 7.19029 11.7601 7.19029 11.82C7.19029 12.5575 7.19171 13.2946 7.19029 14.0321C7.18793 14.9645 6.5687 15.7333 5.61811 15.9818C5.28959 16.0676 4.95682 16.1382 4.62971 16.2285C4.56826 16.2455 4.49074 16.3157 4.47798 16.3729C4.2752 17.2816 3.6744 17.8551 2.72524 18.0348C2.70349 18.0388 2.68317 18.0531 2.66237 18.0625H2.06063C2.02943 18.0504 1.99918 18.0343 1.96656 18.0276C1.39933 17.9114 0.931841 17.6383 0.626009 17.173C0.46293 16.9222 0.377373 16.6263 0.256836 16.3514C0.256836 16.1503 0.256836 15.9492 0.256836 15.748C0.267708 15.7293 0.284725 15.7118 0.288979 15.6917C0.484201 14.8416 1.02496 14.2833 1.91504 14.0911C2.80087 13.8998 3.53449 14.1881 4.1003 14.863C4.1315 14.9006 4.218 14.9256 4.26905 14.9149C4.56117 14.8536 4.85093 14.7803 5.14117 14.7097C5.59212 14.6002 5.77647 14.3749 5.77647 13.9306C5.77694 13.2217 5.77647 12.5128 5.77647 11.8039C5.77647 11.7454 5.77647 11.6873 5.77647 11.6234C5.0939 11.6234 4.44016 11.6242 3.78643 11.6234C2.2568 11.6202 0.907734 10.695 0.433623 9.31741C0.358465 9.0975 0.31545 8.86686 0.256836 8.64114C0.256836 8.38413 0.256836 8.12712 0.256836 7.87011C0.280943 7.76283 0.303632 7.65467 0.330103 7.54784C0.650116 6.24938 1.45038 5.3742 2.83017 5.01886C2.95686 4.98623 2.99183 4.92455 3.01358 4.81906C3.41253 2.89573 4.60655 1.64599 6.57957 1.06805C6.85799 0.986703 7.15247 0.95318 7.4394 0.897308C7.74618 0.897308 8.05248 0.897308 8.35926 0.897308C8.38667 0.906695 8.41362 0.921892 8.44151 0.925021C9.57739 1.04258 10.5488 1.48642 11.3675 2.23957C11.4039 2.2731 11.4819 2.28785 11.5358 2.28069C11.9588 2.22348 12.3823 2.20873 12.8012 2.29678C14.2816 2.60743 15.2081 3.46875 15.5981 4.8508C15.626 4.94913 15.6699 4.9764 15.7626 5.00813C16.076 5.11585 16.4106 5.19899 16.6881 5.36482C17.9927 6.14479 18.5056 7.29932 18.335 8.72562C18.1412 10.3468 16.6196 11.6153 14.9013 11.6234C14.2826 11.6265 13.6633 11.6238 13.0446 11.6242C12.9827 11.6242 12.9212 11.6242 12.8541 11.6242C12.8541 12.4494 12.8479 13.2477 12.8569 14.046C12.8607 14.3852 13.0819 14.6127 13.4511 14.703C13.7357 14.7727 14.0221 14.8353 14.3043 14.9117C14.4211 14.9435 14.4868 14.9287 14.5657 14.8299C14.933 14.3722 15.427 14.1058 16.0301 14.046C17.0563 13.9445 18.0258 14.572 18.2948 15.4968C18.5746 16.4596 18.1 17.4483 17.1447 17.8707C16.9613 17.9521 16.7609 17.9985 16.5685 18.0611H15.9668ZM3.08685 16.0471C3.08496 15.6846 2.7536 15.3748 2.37261 15.3793C1.98925 15.3837 1.66451 15.6998 1.67255 16.06C1.68011 16.4167 2.00249 16.7184 2.37781 16.7198C2.7588 16.7211 3.08874 16.4082 3.08685 16.0471ZM16.2428 16.7198C16.6229 16.7247 16.9552 16.414 16.9571 16.052C16.959 15.6966 16.6432 15.39 16.2655 15.3797C15.8864 15.3694 15.5508 15.6752 15.5428 16.039C15.5347 16.3988 15.8599 16.7153 16.2428 16.7202V16.7198Z" fill="white"/>
<path d="M9.13814 18.0611C9.09229 18.0383 9.04643 18.0164 9.00106 17.9932C8.75242 17.8667 8.60967 17.6732 8.60919 17.4027C8.60683 16.0569 8.60683 14.7111 8.60919 13.3652C8.60967 12.9857 8.91881 12.6983 9.31492 12.6983C9.71151 12.6983 10.0207 12.9853 10.0211 13.3652C10.0235 14.7057 10.0221 16.0457 10.0221 17.3862C10.0221 17.7357 9.80274 17.9311 9.49218 18.0616H9.13814V18.0611Z" fill="white"/>
</g>
<defs>
<clipPath id="clip0_197_147">
<rect width="18.1174" height="17.1638" fill="white" transform="translate(0.256836 0.897308)"/>
</clipPath>
</defs>
</svg>
