<svg width="17" height="19" viewBox="0 0 17 19" fill="none" xmlns="http://www.w3.org/2000/svg">
<path d="M13.4494 6.95902V7.22365C13.4494 10.5133 13.4494 13.8024 13.4494 17.092C13.4494 17.5995 13.1398 17.9763 12.6601 18.002C12.4783 18.0116 12.2692 17.953 12.1091 17.8616C11.443 17.4798 10.786 17.0819 10.136 16.6723C9.92293 16.538 9.76032 16.5249 9.53913 16.6637C8.82454 17.1117 8.08925 17.5258 7.37366 17.9712C6.9747 18.2197 6.61312 18.2182 6.21366 17.9672C5.48392 17.5086 4.73399 17.0814 3.9992 16.6299C3.82952 16.5259 3.70074 16.5314 3.5346 16.6334C2.84324 17.0582 2.14734 17.4768 1.44639 17.8864C0.926236 18.1904 0.313158 17.948 0.163676 17.3884C0.136405 17.2869 0.1359 17.1763 0.1359 17.0703C0.13388 12.1995 0.13287 7.32818 0.13489 2.45689C0.135395 1.20295 0.941386 0.261117 2.17966 0.0555789C2.27814 0.0389137 2.38015 0.0399237 2.48115 0.0399237C6.46465 0.0394187 10.4481 0.0384087 14.4316 0.0399237C15.7179 0.0399237 16.7592 1.04994 16.7799 2.33619C16.7966 3.39468 16.7925 4.45368 16.7819 5.51218C16.7734 6.35352 16.1588 6.95044 15.3119 6.95801C14.7013 6.96357 14.0903 6.95902 13.4494 6.95902ZM12.4838 1.2479C12.3783 1.2479 12.3157 1.2479 12.2525 1.2479C9.03867 1.2479 5.8248 1.2479 2.61094 1.2479C1.81151 1.2479 1.34741 1.71453 1.34741 2.51698C1.34741 7.11002 1.34741 11.7026 1.34741 16.2956C1.34741 16.3623 1.34741 16.4289 1.34741 16.5244C1.4166 16.4855 1.45952 16.4633 1.50093 16.4385C1.98019 16.1491 2.46247 15.8638 2.93818 15.5684C3.4846 15.229 4.02698 15.227 4.57441 15.5588C5.26879 15.9795 5.96519 16.3956 6.65655 16.8213C6.76462 16.888 6.83936 16.8814 6.94289 16.8183C7.62566 16.4027 8.316 16.0002 8.99625 15.5805C9.55781 15.2341 10.1078 15.2371 10.6663 15.5795C11.1329 15.8658 11.6041 16.1446 12.0733 16.4259C12.1192 16.4532 12.1682 16.4749 12.2359 16.5092V16.2562C12.2359 11.7389 12.2369 7.22163 12.2349 2.70434C12.2349 2.21297 12.2187 1.7216 12.4838 1.2479ZM13.4494 5.74903C14.0645 5.74903 14.6554 5.74953 15.2462 5.74903C15.4997 5.74903 15.5714 5.67681 15.5714 5.42481C15.5719 4.42389 15.5724 3.42246 15.5699 2.42154C15.5699 2.32205 15.5573 2.22054 15.5346 2.12308C15.4108 1.58474 14.8695 1.19134 14.3453 1.25346C13.7893 1.31961 13.4494 1.73271 13.4489 2.34377C13.4489 2.87251 13.4489 3.40175 13.4489 3.9305C13.4489 4.52792 13.4489 5.12534 13.4489 5.74953L13.4494 5.74903Z" fill="white"/>
<path d="M6.35993 7.83472C7.14673 7.83472 7.93353 7.8327 8.72033 7.83573C9.08898 7.83724 9.35361 8.07005 9.37684 8.40234C9.39906 8.72555 9.18898 8.99169 8.86729 9.0437C8.80568 9.0538 8.74204 9.05835 8.67942 9.05835C7.13107 9.05936 5.58272 9.05936 4.03387 9.05835C3.68541 9.05835 3.4521 8.91291 3.35968 8.64778C3.21575 8.23418 3.51371 7.83825 3.98033 7.83573C4.7732 7.83118 5.56656 7.83421 6.35942 7.83421L6.35993 7.83472Z" fill="white"/>
<path d="M6.36039 4.60719C7.16739 4.60719 7.97389 4.60416 8.78089 4.60871C9.06117 4.61022 9.29044 4.79152 9.35963 5.04049C9.42932 5.29148 9.34094 5.56418 9.11722 5.70407C9.01572 5.7677 8.88391 5.81517 8.76574 5.81567C7.1583 5.82274 5.55137 5.82224 3.94393 5.81921C3.59497 5.8187 3.32328 5.54499 3.32227 5.2127C3.32126 4.87838 3.58487 4.61123 3.9404 4.60871C4.74689 4.60315 5.55389 4.60719 6.36089 4.60719H6.36039Z" fill="white"/>
<path d="M6.36012 11.1536C7.16712 11.1536 7.97362 11.1511 8.78062 11.1546C9.08665 11.1561 9.33007 11.3717 9.36996 11.6611C9.4139 11.9793 9.23815 12.2555 8.93263 12.3414C8.8791 12.3565 8.82102 12.3626 8.76496 12.3626C7.15753 12.3636 5.55059 12.3646 3.94316 12.3626C3.62349 12.3626 3.37553 12.1439 3.32654 11.8338C3.28412 11.5647 3.46239 11.2748 3.73661 11.1864C3.81842 11.1601 3.90932 11.1556 3.99618 11.1551C4.78399 11.1531 5.5718 11.1536 6.35962 11.1541L6.36012 11.1536Z" fill="white"/>
</svg>
