<svg width="19" height="21" viewBox="0 0 19 21" fill="none" xmlns="http://www.w3.org/2000/svg">
<g clip-path="url(#clip0_197_129)">
<path d="M0.257058 10.2563C0.257058 8.06073 0.256364 5.86451 0.257752 3.66897C0.25914 2.18529 1.21141 1.05307 2.68423 0.785003C2.81818 0.760884 2.957 0.757438 3.09373 0.756749C6.54951 0.755371 10.0046 0.753992 13.4604 0.756749C15.0262 0.758127 16.2873 2.01301 16.2887 3.56974C16.2915 5.74942 16.2915 7.9298 16.286 10.1095C16.286 10.3066 16.3394 10.4389 16.4872 10.5843C18.1357 12.2037 18.7513 14.1553 18.1475 16.3791C17.5381 18.6263 16.0201 20.0556 13.7366 20.6103C12.134 20.9996 10.6189 20.7054 9.21406 19.8426C9.11272 19.7806 8.9746 19.7517 8.85314 19.7517C6.96387 19.7461 5.07461 19.7496 3.18535 19.7468C1.7743 19.7448 0.650597 18.8675 0.331324 17.5093C0.278574 17.2853 0.260528 17.0496 0.259834 16.8188C0.25567 14.6322 0.257058 12.4442 0.257058 10.2563ZM14.7396 9.39556V9.17228C14.7396 7.35301 14.7396 5.53373 14.7396 3.71445C14.7396 2.82549 14.2044 2.29418 13.3091 2.29349C9.9581 2.29349 6.60712 2.29349 3.25684 2.29349C2.35246 2.29349 1.82288 2.8117 1.82219 3.70618C1.82011 8.06625 1.8208 12.4263 1.82358 16.7864C1.82358 16.9524 1.83746 17.1254 1.88396 17.2839C2.05332 17.8628 2.53292 18.1915 3.20825 18.1936C4.56447 18.1977 5.92138 18.1949 7.2776 18.1936C7.33867 18.1936 7.39975 18.1812 7.45597 18.1756C6.04354 15.7368 6.02202 13.3339 7.83146 11.1418C9.64785 8.94074 12.0348 8.49626 14.7403 9.39487L14.7396 9.39556ZM8.0258 14.8548C8.01609 17.2501 9.98864 19.2203 12.4026 19.2265C14.8166 19.2327 16.7864 17.2832 16.8003 14.8748C16.8141 12.487 14.8555 10.5243 12.447 10.5133C10.0025 10.5023 8.03552 12.4339 8.0258 14.8548Z" fill="white"/>
<path d="M8.28216 3.83448C9.66267 3.83448 11.0432 3.83241 12.4237 3.83586C12.804 3.83654 13.1337 4.12391 13.1837 4.48087C13.2378 4.86678 13.0143 5.22581 12.6409 5.33814C12.5507 5.36501 12.4508 5.37053 12.355 5.37053C9.63421 5.3719 6.91345 5.37259 4.19269 5.37122C3.711 5.37122 3.35216 5.03217 3.36049 4.59182C3.36813 4.15492 3.71516 3.83517 4.18922 3.83448C5.55376 3.8331 6.91831 3.83448 8.28285 3.83448H8.28216Z" fill="white"/>
<path d="M6.20814 8.45022C5.53072 8.45022 4.85262 8.45159 4.1752 8.45022C3.71087 8.44884 3.35828 8.11117 3.36036 7.6784C3.36314 7.24219 3.71156 6.91417 4.18075 6.91348C5.53628 6.9121 6.8918 6.9121 8.24663 6.91348C8.71096 6.91348 9.06424 7.25115 9.06216 7.6846C9.06008 8.11806 8.70818 8.44884 8.24107 8.45022C7.56366 8.45228 6.88555 8.45022 6.20814 8.45022Z" fill="white"/>
<path d="M4.64094 11.5285C4.46395 11.5285 4.28627 11.5333 4.10928 11.5278C3.69909 11.5147 3.36315 11.1702 3.36038 10.7649C3.35691 10.3577 3.68867 10.0042 4.09887 9.99382C4.46951 9.98486 4.84083 9.98624 5.21147 9.99382C5.62236 10.0021 5.9576 10.3487 5.96107 10.7553C5.96454 11.1591 5.6293 11.5126 5.22188 11.5278C5.02893 11.5347 4.83528 11.5292 4.64164 11.5292L4.64094 11.5285Z" fill="white"/>
<path d="M13.187 14.0858C13.6041 14.0858 13.9831 14.0838 14.3614 14.0858C14.8493 14.09 15.206 14.4104 15.2158 14.8494C15.2255 15.2842 14.8743 15.6281 14.3884 15.635C13.7436 15.6439 13.0981 15.6446 12.4534 15.635C11.937 15.6267 11.6385 15.3111 11.6378 14.7977C11.6371 14.1334 11.6357 13.4691 11.6378 12.8048C11.6392 12.3362 11.964 12.0068 12.4159 12.0088C12.8635 12.0102 13.1828 12.3437 13.1856 12.8151C13.1877 13.2293 13.1856 13.6434 13.1856 14.0851L13.187 14.0858Z" fill="white"/>
</g>
<defs>
<clipPath id="clip0_197_129">
<rect width="18.1174" height="20.0245" fill="white" transform="translate(0.256836 0.755493)"/>
</clipPath>
</defs>
</svg>
