<svg width="18" height="18" viewBox="0 0 18 18" fill="none" xmlns="http://www.w3.org/2000/svg">
<g clip-path="url(#clip0_197_112)">
<path d="M13.7793 18.0001C12.9267 17.9123 12.1799 17.7121 11.4509 17.4401C9.63607 16.7641 8.03185 15.7347 6.54635 14.5105C4.486 12.8126 2.75499 10.8321 1.44249 8.50144C0.783819 7.33131 0.28364 6.09908 0.0375794 4.77051C-0.0376355 4.36423 -0.0134593 4.00773 0.235287 3.65176C1.05083 2.48591 1.94052 1.38537 2.98654 0.41597C3.11817 0.293925 3.26913 0.191151 3.41634 0.0878408C3.59847 -0.0400921 3.78973 -0.0245689 3.95628 0.108717C4.09059 0.216309 4.22114 0.339424 4.32053 0.478598C5.14789 1.64016 5.90327 2.84509 6.52379 4.13138C6.5614 4.20953 6.58235 4.29571 6.62264 4.37172C6.80692 4.71912 6.70699 5.00175 6.42977 5.2453C6.03758 5.59003 5.65559 5.9476 5.24782 6.27305C4.98564 6.48235 4.96254 6.68896 5.07214 6.99354C6.10527 9.86374 8.05334 11.8229 10.9169 12.8747C11.4025 13.053 11.4144 13.0444 11.7625 12.6676C12.0483 12.3582 12.3159 12.0316 12.5926 11.7131C12.6495 11.6473 12.7118 11.5868 12.7709 11.5226C13.0052 11.2667 13.2657 11.2046 13.5999 11.3449C14.517 11.7303 15.3599 12.2474 16.1996 12.7703C16.637 13.0423 17.0684 13.326 17.4842 13.6289C18.1273 14.0968 18.1606 14.3526 17.6239 14.9388C16.602 16.0554 15.4416 17.0114 14.1672 17.8282C14.0318 17.9149 13.8691 17.9599 13.7783 17.999L13.7793 18.0001Z" fill="white"/>
<path d="M17.9887 8.34506H16.7149C16.6681 6.41964 16.0046 4.74367 14.6379 3.37495C13.2695 2.00462 11.5938 1.33337 9.64844 1.28573C9.64844 0.86393 9.64844 0.446944 9.64844 0.0299576C13.7348 -0.124204 18.0016 3.39582 17.9892 8.3456L17.9887 8.34506Z" fill="white"/>
<path d="M14.7685 8.34615H13.4973C13.4613 7.29272 13.1019 6.37577 12.3519 5.62959C11.6068 4.88875 10.6945 4.53011 9.64258 4.49639C9.64258 4.0703 9.64258 3.65867 9.64258 3.2465C12.0215 3.08592 14.8023 5.24258 14.7685 8.34615Z" fill="white"/>
</g>
<defs>
<clipPath id="clip0_197_112">
<rect width="18" height="18" fill="white"/>
</clipPath>
</defs>
</svg>
