<svg width="29" height="38" viewBox="0 0 29 38" fill="none" xmlns="http://www.w3.org/2000/svg">
<rect y="8.82608" width="2.52174" height="25.2174" rx="1.26087" fill="white"/>
<rect x="7.56522" y="5.04347" width="2.52174" height="32.7826" rx="1.26087" fill="white"/>
<rect x="3.78262" y="15.1304" width="2.52174" height="12.6087" rx="1.26087" fill="white"/>
<rect x="11.3478" y="12.6087" width="2.52174" height="17.6522" rx="1.26087" fill="white"/>
<rect x="15.1304" y="17.6522" width="2.52174" height="7.56522" rx="1.26087" fill="white"/>
<path d="M18.5868 3.14313C18.8745 2.19804 20.2125 2.19804 20.5001 3.14313L21.5948 6.73969C21.6919 7.05856 21.9414 7.30812 22.2603 7.40518L25.8569 8.49985C26.802 8.78751 26.802 10.1255 25.8569 10.4132L22.2603 11.5079C21.9414 11.6049 21.6919 11.8545 21.5948 12.1734L20.5001 15.7699C20.2125 16.715 18.8745 16.715 18.5868 15.7699L17.4921 12.1734C17.3951 11.8545 17.1455 11.6049 16.8266 11.5079L13.2301 10.4132C12.285 10.1255 12.285 8.78751 13.2301 8.49985L16.8266 7.40518C17.1455 7.30812 17.3951 7.05856 17.4921 6.73969L18.5868 3.14313Z" fill="white"/>
</svg>
