<svg width="17" height="15" viewBox="0 0 17 15" fill="none" xmlns="http://www.w3.org/2000/svg">
<g clip-path="url(#clip0_197_86)">
<path d="M9.93525 8.08953C9.85563 7.97861 9.78319 7.87988 9.71255 7.77941C9.31744 7.21725 8.91994 6.65625 8.52962 6.09119C8.46317 5.99478 8.39612 5.95064 8.2698 5.94658C7.4736 5.91928 6.84501 5.29266 6.83603 4.53072C6.82705 3.77053 7.44426 3.13403 8.23927 3.08292C9.26656 3.0173 10.0484 4.01909 9.70836 4.97441C9.66286 5.10159 9.67663 5.18813 9.75386 5.29324C9.97715 5.59755 10.1897 5.90883 10.4112 6.22301C11.6516 5.79849 12.8644 5.84379 14.036 6.42802C14.9645 6.89087 15.6374 7.59764 16.0553 8.52625C16.8856 10.3713 16.2588 12.5619 14.5856 13.7181C12.8627 14.9086 10.6848 14.6862 9.35396 13.6542C9.64251 13.2808 9.93106 12.9068 10.2286 12.5218C10.9655 13.0253 11.7713 13.2088 12.6495 13.0195C13.2925 12.8807 13.8295 12.5595 14.2545 12.0694C15.1118 11.0815 15.1728 9.63954 14.406 8.59071C14.0749 8.13773 13.6451 7.80438 13.1147 7.59299C12.5789 7.37928 12.0263 7.33805 11.457 7.4269C10.8919 7.51517 10.4321 7.82994 9.93465 8.09011L9.93525 8.08953Z" fill="white"/>
<path d="M7.5331 7.37752C7.16852 7.8967 6.81292 8.40311 6.45672 8.9101C6.31724 9.10814 6.18134 9.3085 6.03707 9.50363C5.98139 9.57854 5.97361 9.64126 6.00714 9.73128C6.30407 10.5194 5.87364 11.3672 5.06127 11.6059C4.23812 11.8475 3.39283 11.3684 3.19048 10.5455C2.97976 9.6883 3.67 8.81893 4.57636 8.80964C4.70088 8.80847 4.77092 8.77073 4.83797 8.67026C5.03373 8.37524 5.24266 8.08835 5.4456 7.79972C3.57182 6.2108 3.52333 3.74147 4.63024 2.13745C5.74253 0.527045 7.85337 -0.173334 9.7493 0.457936C11.7536 1.12521 12.7701 2.95979 12.727 4.50399H11.2795C11.2501 4.3077 11.231 4.10328 11.1873 3.90408C10.8873 2.55094 9.67387 1.64324 8.20059 1.66473C6.86979 1.68447 5.6701 2.688 5.41986 3.99119C5.19237 5.17475 5.75391 6.36412 6.82789 6.97448C7.06016 7.10631 7.29184 7.2393 7.5337 7.37752H7.5331Z" fill="white"/>
<path d="M1.46844 7.20215C1.83063 7.57208 2.15929 7.90775 2.49752 8.25272C2.41551 8.35493 2.30775 8.47688 2.21317 8.60813C0.941631 10.362 2.09583 12.8365 4.29168 13.0671C5.90924 13.2373 7.34779 12.1547 7.54954 10.6024C7.58666 10.3161 7.5669 10.0222 7.57289 9.73246C7.57408 9.66683 7.57289 9.60063 7.57289 9.51351H7.77703C8.70972 9.51351 9.64182 9.51177 10.5745 9.51584C10.6763 9.51584 10.7386 9.49029 10.8008 9.40666C11.1989 8.87411 11.8814 8.66853 12.5004 8.88573C13.111 9.10002 13.5079 9.67961 13.4708 10.3033C13.4313 10.9654 12.9829 11.4817 12.3142 11.6338C11.7575 11.7604 11.1528 11.5397 10.8098 11.0734C10.7421 10.9816 10.6751 10.9456 10.559 10.9468C10.0872 10.9532 9.61488 10.9526 9.14315 10.9468C9.0318 10.9456 8.98929 10.9735 8.96415 11.0879C8.56964 12.9086 7.08139 14.2489 5.19445 14.494C2.84295 14.7983 0.629135 13.1931 0.268149 10.9114C0.0514371 9.54081 0.442955 8.34215 1.39421 7.31191C1.41696 7.28752 1.43193 7.25616 1.46844 7.20215Z" fill="white"/>
</g>
<defs>
<clipPath id="clip0_197_86">
<rect width="16.2103" height="14.3032" fill="white" transform="translate(0.209961 0.227386)"/>
</clipPath>
</defs>
</svg>
