<svg width="151" height="42" viewBox="0 0 151 42" fill="none" xmlns="http://www.w3.org/2000/svg">
<rect width="41.3237" height="41.3237" rx="10.3704" fill="#036666"/>
<mask id="mask0_18_286" style="mask-type:alpha" maskUnits="userSpaceOnUse" x="6" y="6" width="30" height="30">
<rect x="6.12207" y="6.12207" width="29.0796" height="29.0796" fill="#9D6C6C"/>
</mask>
<g mask="url(#mask0_18_286)">
<path d="M11.0402 21.6207V12.2803L8.41772 13.7933V23.0823C8.41772 25.2638 8.41772 26.3546 8.93604 27.2532C9.45436 28.1518 10.3986 28.6979 12.2869 29.7902L18.9074 33.6197V7.75537L16.3364 9.24656V29.1462L14.9377 28.3449C13.0359 27.2556 12.085 26.7109 11.5626 25.8096C11.0402 24.9083 11.0402 23.8124 11.0402 21.6207Z" fill="white" stroke="white" strokeWidth="0.740741"/>
<path d="M22.8396 33.6712V7.65259L31.9682 13.0145C32.8751 13.5473 33.4322 14.5204 33.4322 15.5722V17.2273C33.4322 17.9515 32.8451 18.5385 32.1209 18.5385C31.3968 18.5385 30.8097 17.9515 30.8097 17.2273V15.2628L25.462 12.1261V29.1462L30.8097 26.1124V24.045C30.8097 23.3209 31.3968 22.7338 32.1209 22.7338C32.8451 22.7338 33.4322 23.3209 33.4322 24.045V25.7889C33.4322 26.8801 32.8501 27.8884 31.9053 28.4342L22.8396 33.6712Z" fill="white" stroke="white" strokeWidth="0.740741"/>
</g>
<path d="M59.6148 12.4333C59.6148 11.9994 59.7078 11.7127 59.8938 11.5732C60.0797 11.4337 60.4671 11.364 61.056 11.364C61.6449 11.364 62.0478 11.457 62.2647 11.6429C62.4972 11.8289 62.6211 12.2783 62.6366 12.9911L62.9156 19.2439C62.9156 19.4764 62.9156 19.7088 62.9156 19.9413C62.9156 22.3432 62.7529 24.2493 62.4274 25.6594C62.1175 27.0696 61.5751 28.0769 60.8003 28.6812C60.041 29.2856 58.9485 29.5878 57.5228 29.5878C55.4463 29.5878 54.0129 28.9369 53.2226 27.6352C52.4323 26.3335 52.0371 23.9936 52.0371 20.6154V12.9446C52.0371 12.2783 52.1301 11.8521 52.316 11.6662C52.5175 11.4647 52.9204 11.364 53.5248 11.364C54.1291 11.364 54.5398 11.4725 54.7567 11.6894C54.9737 11.8909 55.0976 12.3868 55.1286 13.1771L55.4541 19.1974C55.4541 23.118 55.609 25.4502 55.919 26.194C56.0429 26.5195 56.2211 26.6822 56.4536 26.6822C56.996 26.6822 57.4144 26.6744 57.7088 26.6589C58.0032 26.6279 58.2899 26.535 58.5688 26.38C58.8478 26.2095 59.0415 26.0158 59.1499 25.7989C59.2584 25.5819 59.3591 25.2178 59.4521 24.7064C59.5606 23.9936 59.6148 22.6299 59.6148 20.6154V12.4333Z" fill="#BDBEC4"/>
<path d="M67.6297 18.6163C68.9004 17.7485 69.7372 17.3146 70.1401 17.3146C70.5585 17.3146 70.9304 17.3921 71.2558 17.5471C71.5967 17.702 71.8447 17.857 71.9997 18.012L72.2089 18.2212C71.9764 19.2129 71.7982 19.8328 71.6742 20.0807C71.5503 20.3287 71.3798 20.4526 71.1628 20.4526C70.9614 20.4526 70.698 20.3674 70.3725 20.1969C70.0471 20.0265 69.7527 19.9413 69.4892 19.9413C69.2258 19.9413 68.6989 20.1815 67.9086 20.6618V29.2158C67.9086 29.3088 67.8931 29.3708 67.8621 29.4018C67.8001 29.5258 67.5134 29.5878 67.0021 29.5878C66.4907 29.5878 66.0103 29.549 65.5609 29.4715C65.127 29.3941 64.9101 29.3088 64.9101 29.2158V17.6865C64.9101 17.4386 65.2587 17.3146 65.9561 17.3146C66.6534 17.3146 67.0563 17.4386 67.1648 17.6865V17.733L67.6297 18.6163Z" fill="#BDBEC4"/>
<path d="M77.6984 17.3146C79.5734 17.3146 80.8441 17.733 81.5105 18.5698C82.1923 19.3911 82.5333 20.964 82.5333 23.2885C82.5333 25.6129 82.2621 27.2478 81.7197 28.1931C81.1928 29.1229 80.356 29.5878 79.2093 29.5878C78.419 29.5878 77.4737 29.4948 76.3734 29.3088L75.8388 29.2158C75.4204 29.4638 74.6301 29.5878 73.4679 29.5878V11.7359C73.4679 11.488 73.7391 11.364 74.2814 11.364C74.8238 11.364 75.2732 11.4028 75.6296 11.4802C75.986 11.5422 76.172 11.6275 76.1875 11.7359L76.5826 17.3146H77.6984ZM76.5826 19.5461V27.3563H78.8141C78.9846 27.3563 79.0853 27.0309 79.1163 26.38C79.1628 25.7137 79.186 24.6444 79.186 23.1723C79.186 21.7001 79.0776 20.7316 78.8606 20.2667C78.6592 19.7863 78.2717 19.5461 77.6984 19.5461H76.5826Z" fill="#BDBEC4"/>
<path d="M89.2782 28.4953C88.4724 29.2236 87.7518 29.5878 87.1164 29.5878C86.4966 29.5878 85.9929 29.5413 85.6055 29.4483C85.2181 29.3708 84.8695 29.1926 84.5595 28.9137C84.2496 28.6192 84.0326 28.2008 83.9087 27.6585C83.7847 27.1161 83.7227 26.3955 83.7227 25.4967C83.7227 24.2415 84.3348 23.3815 85.559 22.9166L88.883 22.0565C88.8675 21.0492 88.7668 20.3984 88.5808 20.104C88.3949 19.8095 87.992 19.6623 87.3721 19.6623C86.7523 19.6623 86.2176 19.7631 85.7682 19.9645L84.9547 20.2899H84.9314C84.792 20.3674 84.668 20.3054 84.5595 20.104C84.2806 19.5151 84.1411 19.058 84.1411 18.7325C84.1411 18.3916 84.1644 18.2057 84.2109 18.1747C84.2728 18.1282 84.3038 18.0972 84.3038 18.0817C85.0787 17.5703 86.0782 17.3146 87.3024 17.3146C88.5421 17.3146 89.4951 17.4773 90.1615 17.8028C90.8278 18.1282 91.3082 18.7248 91.6026 19.5926C91.9126 20.4449 92.0675 21.7156 92.0675 23.4047L92.021 29.2158C92.021 29.3088 92.0055 29.3708 91.9745 29.4018C91.9126 29.5258 91.6181 29.5878 91.0912 29.5878C90.1305 29.5878 89.6501 29.4638 89.6501 29.2158L89.2782 28.4953ZM86.3029 25.5432C86.3029 26.6589 86.6283 27.2478 87.2791 27.3098C87.7285 27.3098 88.054 27.2323 88.2554 27.0773C88.6893 26.7829 88.9063 25.6827 88.9063 23.7766C88.1004 23.8851 87.4651 24.1098 87.0002 24.4507C86.5353 24.7761 86.3029 25.1403 86.3029 25.5432Z" fill="#BDBEC4"/>
<path d="M100.03 17.3146C101.177 17.3146 102.014 17.671 102.541 18.3839C103.083 19.0967 103.354 20.3519 103.354 22.1495V29.2158C103.354 29.3088 103.347 29.3708 103.331 29.4018C103.254 29.5258 102.951 29.5878 102.425 29.5878C101.913 29.5878 101.386 29.549 100.844 29.4715C100.302 29.3941 100.03 29.3088 100.03 29.2158L100.007 22.1495C100.007 20.4139 99.8832 19.5461 99.6353 19.5461C99.0774 19.5461 98.3336 19.825 97.4038 20.3829V29.2158C97.4038 29.3088 97.396 29.3708 97.3805 29.4018C97.3031 29.5258 97.0009 29.5878 96.474 29.5878C95.9626 29.5878 95.428 29.549 94.8701 29.4715C94.3278 29.3941 94.0566 29.3088 94.0566 29.2158V17.6865C94.0566 17.4386 94.3665 17.3146 94.9863 17.3146C95.9626 17.3146 96.5205 17.4386 96.66 17.6865C96.66 17.7175 96.6677 17.733 96.6832 17.733L97.1248 18.6163C98.4265 17.7485 99.3951 17.3146 100.03 17.3146Z" fill="#BDBEC4"/>
<path d="M120.669 26.473C121.057 26.473 121.251 26.7209 121.251 27.2168C121.251 27.7127 121.243 28.0846 121.227 28.3325C121.165 28.8904 120.917 29.2081 120.483 29.2856C119.104 29.487 118.082 29.5878 117.415 29.5878C115.106 29.5878 113.518 28.9369 112.65 27.6352C111.782 26.3335 111.348 23.9858 111.348 20.5921C111.348 18.1127 111.534 16.2221 111.906 14.9204C112.294 13.6032 112.906 12.6812 113.743 12.1543C114.595 11.6275 115.858 11.364 117.531 11.364C119.221 11.364 120.452 11.6275 121.227 12.1543C121.382 12.2628 121.46 12.3945 121.46 12.5495C121.46 12.7045 121.382 12.9989 121.227 13.4328C121.088 13.8512 120.948 14.1534 120.809 14.3393C120.685 14.5098 120.553 14.595 120.414 14.595C120.274 14.595 120.166 14.5873 120.088 14.5718C118.926 14.3393 117.919 14.2231 117.067 14.2231C116.23 14.2231 115.68 14.688 115.416 15.6178C115.168 16.5476 115.044 18.0584 115.044 20.1505C115.044 22.227 115.098 23.6759 115.207 24.4972C115.315 25.3185 115.517 25.8919 115.811 26.2173C116.106 26.5427 116.571 26.7054 117.206 26.7054C117.857 26.7054 118.585 26.6667 119.391 26.5892C120.212 26.5117 120.638 26.473 120.669 26.473Z" fill="#BDBEC4"/>
<path d="M129.132 17.3146C130.278 17.3146 131.115 17.671 131.642 18.3839C132.184 19.0967 132.455 20.3519 132.455 22.1495V29.2158C132.455 29.3088 132.448 29.3708 132.432 29.4018C132.355 29.5258 132.053 29.5878 131.526 29.5878C131.014 29.5878 130.487 29.549 129.945 29.4715C129.403 29.3941 129.132 29.3088 129.132 29.2158L129.108 22.1495C129.108 20.4139 128.984 19.5461 128.736 19.5461C128.178 19.5461 127.435 19.825 126.505 20.3829V29.2158C126.505 29.3088 126.497 29.3708 126.482 29.4018C126.404 29.5258 126.102 29.5878 125.575 29.5878C125.064 29.5878 124.529 29.549 123.971 29.4715C123.429 29.3941 123.158 29.3088 123.158 29.2158V11.7359C123.158 11.488 123.429 11.364 123.971 11.364C124.529 11.364 125.009 11.4028 125.412 11.4802C125.815 11.5422 126.025 11.6275 126.04 11.7359L126.458 18.4536C127.636 17.6943 128.527 17.3146 129.132 17.3146Z" fill="#BDBEC4"/>
<path d="M139.263 28.4953C138.457 29.2236 137.737 29.5878 137.101 29.5878C136.481 29.5878 135.978 29.5413 135.59 29.4483C135.203 29.3708 134.854 29.1926 134.544 28.9137C134.234 28.6192 134.018 28.2008 133.894 27.6585C133.77 27.1161 133.708 26.3955 133.708 25.4967C133.708 24.2415 134.32 23.3815 135.544 22.9166L138.868 22.0565C138.852 21.0492 138.752 20.3984 138.566 20.104C138.38 19.8095 137.977 19.6623 137.357 19.6623C136.737 19.6623 136.203 19.7631 135.753 19.9645L134.94 20.2899H134.916C134.777 20.3674 134.653 20.3054 134.544 20.104C134.265 19.5151 134.126 19.058 134.126 18.7325C134.126 18.3916 134.149 18.2057 134.196 18.1747C134.258 18.1282 134.289 18.0972 134.289 18.0817C135.064 17.5703 136.063 17.3146 137.287 17.3146C138.527 17.3146 139.48 17.4773 140.146 17.8028C140.813 18.1282 141.293 18.7248 141.588 19.5926C141.897 20.4449 142.052 21.7156 142.052 23.4047L142.006 29.2158C142.006 29.3088 141.99 29.3708 141.959 29.4018C141.897 29.5258 141.603 29.5878 141.076 29.5878C140.115 29.5878 139.635 29.4638 139.635 29.2158L139.263 28.4953ZM136.288 25.5432C136.288 26.6589 136.613 27.2478 137.264 27.3098C137.713 27.3098 138.039 27.2323 138.24 27.0773C138.674 26.7829 138.891 25.6827 138.891 23.7766C138.085 23.8851 137.45 24.1098 136.985 24.4507C136.52 24.7761 136.288 25.1403 136.288 25.5432Z" fill="#BDBEC4"/>
<path d="M144.749 19.5461H142.889C142.703 19.5461 142.602 19.5074 142.587 19.4299C142.556 19.3369 142.54 19.2362 142.54 19.1277C142.54 18.4614 142.657 18.1049 142.889 18.0584L144.749 17.6865L146.05 15.0599C146.236 14.8275 146.593 14.7112 147.12 14.7112C147.259 14.7112 147.391 14.9902 147.515 15.548C147.639 16.1059 147.77 16.8187 147.91 17.6865H150.141C150.389 17.6865 150.513 17.9965 150.513 18.6163C150.513 19.2362 150.389 19.5461 150.141 19.5461H147.887V26.9379L148.259 29.5645V29.5878C148.274 29.6807 148.274 29.7427 148.259 29.7737C148.181 29.8977 147.794 29.9597 147.096 29.9597C146.399 29.9597 145.981 29.8202 145.841 29.5413L144.749 27.333V19.5461Z" fill="#BDBEC4"/>
</svg>
